# xmcd
#
# Track frame offsets:
#	150
#	11814
#	25088
#	35019
#	53454
#	71104
#	87605
#	102636
#	116926
#	133241
#	144355
#	159736
#	172204
#	186932
#	204706
#
# Disc length: 2925 seconds
#
# Revision: 1
# Processed by: cddbd v1.5.1PL0 Copyright (c) Steve Scherf et al.
# Submitted via: audiograbber 1.83.01
#
DISCID=e90b6b0f
DTITLE=The Pat-Swingers - Volvo B18 210
DYEAR=2005
DGENRE=Pop
TTITLE0=Jørn Nibe and the Pat-Swingers - Volvo B18 210
TTITLE1=Jørn Nibe and the Pat-Swingers - Handy manden
TTITLE2=Jørn Nibe and the Pat-Swingers - Bonderøven
TTITLE3=Jørn Nibe Studie Version - Jeg vil spille Country
TTITLE4=Jørn Nibe Studie Version - Alt går i stå
TTITLE5=Jørn Nibe Studie Version - Det er for sent at fortryde
TTITLE6=Dario von Sutty - For hun er nemlig læbbe
TTITLE7=Dario von Sutty - Hans pik den var så stor
TTITLE8=D.J.Janus - Strip Musik
TTITLE9=Søren Rislund - Bøsse sangen
TTITLE10=Flemming Fiol - Malke pigerne har dannet en forening
TTITLE11=Martin Lykke - 13,16
TTITLE12=Martin Lykke - Flemming Fiol - Læg lidt mere brænde på pejsen
TTITLE13=Jørn Nibe Studie Version - Sangen til min elskede
TTITLE14=Volvo Mix - Jørn Nibe and the Pat-Swingers
EXTD=
EXTT0=
EXTT1=
EXTT2=
EXTT3=
EXTT4=
EXTT5=
EXTT6=
EXTT7=
EXTT8=
EXTT9=
EXTT10=
EXTT11=
EXTT12=
EXTT13=
EXTT14=
PLAYORDER=
